<svg width="24" height="24" viewBox="0 0 24 24" fill="none" xmlns="http://www.w3.org/2000/svg">
<path d="M11.726 22C10.509 22 9.35795 21.425 8.62995 20.456C8.28295 20.573 7.88595 20.635 7.48395 20.635C6.66495 20.635 5.88095 20.382 5.21795 19.906C4.23195 19.193 3.63995 18.058 3.61995 16.853C2.47095 16.462 1.56795 15.554 1.19095 14.402C0.812955 13.251 1.00395 11.986 1.70095 10.999C1.00395 10.01 0.812955 8.747 1.19095 7.594C1.56795 6.442 2.47195 5.533 3.61995 5.144C3.64095 3.94 4.23196 2.806 5.21896 2.096C6.19996 1.39 7.48095 1.183 8.63295 1.54C9.36095 0.574 10.51 0 11.726 0C12.943 0 14.093 0.575 14.822 1.543C15.168 1.427 15.566 1.365 15.968 1.365C16.786 1.365 17.571 1.618 18.233 2.094C19.221 2.805 19.811 3.939 19.833 5.146C20.979 5.533 21.888 6.442 22.267 7.596C22.646 8.745 22.455 10.009 21.757 11.002C22.449 11.99 22.642 13.251 22.265 14.398C21.885 15.552 20.982 16.461 19.833 16.849C19.812 18.054 19.224 19.189 18.235 19.9C17.255 20.607 15.971 20.816 14.819 20.459C14.09 21.427 12.939 22 11.726 22ZM8.67995 18.438C9.28395 18.438 9.85295 18.731 10.202 19.218C10.552 19.708 11.122 20 11.726 20C12.33 20 12.898 19.708 13.248 19.22C13.713 18.569 14.6 18.281 15.368 18.536C15.945 18.728 16.579 18.631 17.062 18.281C17.55 17.927 17.836 17.359 17.83 16.76C17.82 15.947 18.361 15.212 19.143 14.973C19.717 14.794 20.173 14.348 20.362 13.778C20.549 13.211 20.442 12.584 20.084 12.104C19.594 11.45 19.595 10.543 20.086 9.899C20.446 9.419 20.556 8.79 20.364 8.22C20.176 7.648 19.718 7.201 19.141 7.024C18.36 6.783 17.824 6.048 17.83 5.238C17.839 4.634 17.553 4.068 17.062 3.716C16.578 3.368 15.937 3.27 15.368 3.462C14.6 3.72 13.716 3.433 13.249 2.78C12.898 2.292 12.33 2 11.726 2C11.122 2 10.552 2.292 10.203 2.78C9.73596 3.434 8.84495 3.72 8.08095 3.463C7.51395 3.272 6.87395 3.369 6.38795 3.719C5.89895 4.072 5.61195 4.639 5.61995 5.239C5.62695 6.049 5.08895 6.78 4.30995 7.021C3.73295 7.2 3.27795 7.646 3.09095 8.216C2.90395 8.786 3.00895 9.412 3.36995 9.893C3.86595 10.553 3.86695 11.441 3.37095 12.101C3.00895 12.581 2.90495 13.208 3.09095 13.78C3.27795 14.349 3.73395 14.797 4.31095 14.974C5.09095 15.213 5.62895 15.95 5.61995 16.759C5.61095 17.361 5.89795 17.929 6.38795 18.28C6.87295 18.632 7.51295 18.725 8.08295 18.536C8.27595 18.473 8.47695 18.438 8.67995 18.438Z" fill="#92989E"/>
<path d="M14.082 16.637C13.796 16.637 13.512 16.561 13.262 16.417L11.722 15.55L10.184 16.407C9.61901 16.724 8.87601 16.668 8.35901 16.265C7.85801 15.87 7.61101 15.236 7.70901 14.599L8.02001 12.655L6.71801 11.294C6.28001 10.841 6.12101 10.173 6.30801 9.55598C6.50001 8.92198 7.03601 8.45098 7.67301 8.35498L9.41201 8.08398L10.206 6.35998C10.479 5.75698 11.079 5.36298 11.732 5.36298C12.385 5.36298 12.984 5.75698 13.26 6.36498L14.051 8.08298L15.795 8.35498C16.43 8.44998 16.966 8.92298 17.154 9.55998L17.269 9.94598L17.222 10.039C17.234 10.507 17.064 10.966 16.734 11.307L15.433 12.668L15.745 14.609C15.851 15.245 15.605 15.888 15.101 16.282C14.809 16.512 14.447 16.637 14.082 16.637ZM11.727 13.257L13.68 14.358L13.305 12.006L14.979 10.253L12.684 9.89398L11.732 7.82798L10.781 9.89398L8.48901 10.252L10.152 11.989L9.77601 14.343L11.727 13.257Z" fill="#92989E"/>
</svg>
