<svg width="24" height="24" viewBox="0 0 24 24" fill="none" xmlns="http://www.w3.org/2000/svg">
<path d="M21.811 20.02C21.926 19.699 22 19.359 22 19V5C22 3.346 20.654 2 19 2H5C3.346 2 2 3.346 2 5V19C2 20.65 3.342 21.995 4.993 21.999C4.995 21.999 4.998 22 5 22H19C19.594 22 20.145 21.82 20.609 21.523C20.972 21.685 21.41 21.619 21.708 21.312C22.052 20.96 22.074 20.419 21.811 20.02ZM4 5C4 4.449 4.449 4 5 4H19C19.552 4 20 4.449 20 5V18.096L17.299 15.303C16.912 14.903 16.281 14.903 15.893 15.303L14.166 17.082L11.469 14.301C11.081 13.901 10.451 13.901 10.063 14.301L4.61 19.921C4.252 19.77 4 19.413 4 19V5ZM7.345 20L10.765 16.475L13.462 19.256C13.852 19.656 14.481 19.656 14.868 19.256L16.594 17.479L19.028 19.997C19.02 19.994 19.01 20 19 20H7.345Z" fill="#92989E"/>
<path d="M16.5 10C17.3284 10 18 9.32843 18 8.5C18 7.67157 17.3284 7 16.5 7C15.6716 7 15 7.67157 15 8.5C15 9.32843 15.6716 10 16.5 10Z" fill="#92989E"/>
</svg>
