<svg width="16" height="16" viewBox="0 0 16 16" fill="none" xmlns="http://www.w3.org/2000/svg">
<g clip-path="url(#clip0_19_23)">
<path d="M12.004 4.50602C12.172 4.67402 12.113 4.81102 11.877 4.81102H4.973C2.226 4.81202 0 7.03802 0 9.78402C0 12.532 2.224 14.758 4.973 14.758H7.85C8.446 14.758 8.93 14.278 8.93 13.676C8.93 13.079 8.449 12.596 7.85 12.596H4.973C3.418 12.596 2.162 11.338 2.162 9.78402C2.162 8.23202 3.42 6.97302 4.973 6.97302H11.877C12.115 6.97302 12.174 7.10902 12.004 7.27802L11.343 7.93902C10.921 8.36102 10.918 9.04302 11.344 9.46702C11.766 9.89102 12.449 9.89102 12.874 9.46602L15.682 6.65702C16.106 6.23402 16.108 5.55102 15.682 5.12602L12.874 2.31802C12.451 1.89502 11.77 1.89102 11.344 2.31702C10.922 2.73902 10.921 3.42302 11.343 3.84502L12.004 4.50602Z" fill="#92989E"/>
</g>
<defs>
<clipPath id="clip0_19_23">
<rect width="16" height="16" fill="white"/>
</clipPath>
</defs>
</svg>
