<svg width="24" height="24" viewBox="0 0 24 24" fill="none" xmlns="http://www.w3.org/2000/svg">
<path d="M20.127 6.59201C20.127 7.20401 19.631 7.70001 19.02 7.70001C18.41 7.70001 17.912 7.20301 17.912 6.59201V5.21701H13.174V18.783H14.55C15.161 18.783 15.658 19.28 15.658 19.89C15.658 20.501 15.16 20.999 14.549 20.999H9.57998C8.96898 20.999 8.47198 20.502 8.47198 19.892C8.47198 19.281 8.96898 18.784 9.57998 18.784H10.956V5.21799H6.21698V6.59299C6.21698 7.20499 5.71998 7.70099 5.10898 7.70099C4.49698 7.70099 4.00098 7.20399 4.00098 6.59299V4.10901C4.00098 3.49801 4.49798 3.00101 5.10898 3.00101H19.02C19.631 3.00101 20.127 3.49801 20.127 4.10901V6.59201Z" fill="#EE5C33" fill-opacity="0.8"/>
</svg>
