<svg width="16" height="16" viewBox="0 0 16 16" fill="none" xmlns="http://www.w3.org/2000/svg">
<g clip-path="url(#clip0_19_21)">
<path d="M3.997 4.506C3.828 4.675 3.887 4.812 4.123 4.812H11.027C13.773 4.812 16 7.038 16 9.784C16 12.532 13.775 14.758 11.027 14.758H8.15C7.554 14.758 7.07 14.278 7.07 13.676C7.07 13.079 7.552 12.596 8.15 12.596H11.027C12.582 12.596 13.838 11.338 13.838 9.784C13.838 8.232 12.58 6.973 11.027 6.973H4.123C3.885 6.973 3.827 7.109 3.997 7.278L4.658 7.939C5.08 8.361 5.082 9.043 4.657 9.467C4.235 9.891 3.552 9.891 3.127 9.466L0.318 6.658C-0.105 6.235 -0.107 5.552 0.318 5.127L3.126 2.319C3.549 1.896 4.231 1.892 4.656 2.318C5.078 2.74 5.079 3.424 4.657 3.846L3.997 4.506Z" fill="#92989E"/>
</g>
<defs>
<clipPath id="clip0_19_21">
<rect width="16" height="16" fill="white"/>
</clipPath>
</defs>
</svg>
